# xmcd
#
# Track frame offsets:
#   150
#   16560
#   35382
#   47928
#   65446
#   92114
#   114239
#   131699
#   157587
#   184747
#   210367
#   230378
#   263098
#   299872
#
# Disc length: 4316 seconds
#
# Revision: 0
# Processed by: cddbd v1.5.2PL0 Copyright (c) Steve Scherf et al.
# Submitted via: uFREEDB ActiveX Control 1.5
#
DISCID=b710da0e
DTITLE=BIBLIA - BIBLIA
DYEAR=2006
DGENRE=Gospel and Religious
TTITLE0=MT 01
TTITLE1=MT02
TTITLE2=MT03
TTITLE3=MT04
TTITLE4=MT05
TTITLE5=MT06
TTITLE6=MT07
TTITLE7=MT08
TTITLE8=MT09
TTITLE9=MT10
TTITLE10=MT11
TTITLE11=MT12
TTITLE12=MT13
TTITLE13=MT14
EXTD=
EXTT0=
EXTT1=
EXTT2=
EXTT3=
EXTT4=
EXTT5=
EXTT6=
EXTT7=
EXTT8=
EXTT9=
EXTT10=
EXTT11=
EXTT12=
EXTT13=
PLAYORDER=
